<svg width="45" height="44" viewBox="0 0 45 44" fill="none" xmlns="http://www.w3.org/2000/svg">
<g clip-path="url(#clip0_7_135)" filter="url(#filter0_b_7_135)">
<path d="M22.5002 0C10.0753 0 0 10.086 0 22.5282C0 32.4817 6.44699 40.9263 15.387 43.9051C16.5115 44.1137 16.9243 43.4164 16.9243 42.8214C16.9243 42.2842 16.9035 40.5096 16.8938 38.6271C10.6342 39.9899 9.31335 35.9691 9.31335 35.9691C8.28984 33.3651 6.81511 32.6727 6.81511 32.6727C4.77367 31.2745 6.96899 31.3032 6.96899 31.3032C9.2284 31.4622 10.4181 33.6248 10.4181 33.6248C12.4249 37.0688 15.6817 36.0732 16.9657 35.4975C17.1676 34.0415 17.7507 33.0477 18.3942 32.4851C13.3966 31.9154 8.14303 29.9837 8.14303 21.3516C8.14303 18.892 9.02198 16.8823 10.4613 15.3047C10.2277 14.7373 9.45755 12.4459 10.6793 9.34285C10.6793 9.34285 12.5687 8.73738 16.8684 11.6521C18.6632 11.1529 20.588 10.9026 22.5002 10.894C24.4123 10.9026 26.3386 11.1529 28.1368 11.6521C32.4313 8.73738 34.3181 9.34285 34.3181 9.34285C35.5428 12.4459 34.7723 14.7373 34.5387 15.3047C35.9814 16.8823 36.8544 18.892 36.8544 21.3516C36.8544 30.0043 31.5907 31.9095 26.5805 32.4672C27.3875 33.1663 28.1066 34.5373 28.1066 36.6391C28.1066 39.6534 28.0805 42.0794 28.0805 42.8214C28.0805 43.4209 28.4855 44.1234 29.626 43.9021C38.5612 40.9199 45 32.4784 45 22.5282C45 10.086 34.9262 0 22.5002 0ZM8.42705 32.0919C8.3775 32.2038 8.20163 32.2374 8.04142 32.1605C7.87822 32.087 7.78656 31.9344 7.83947 31.8222C7.88791 31.7069 8.06415 31.6748 8.22697 31.752C8.39054 31.8255 8.48369 31.9796 8.42705 32.0919ZM9.53381 33.0807C9.4265 33.1803 9.21673 33.134 9.0744 32.9766C8.92723 32.8195 8.89966 32.6095 9.00845 32.5084C9.11911 32.4088 9.32255 32.4554 9.4701 32.6125C9.61727 32.7714 9.64596 32.9799 9.53381 33.0807ZM10.2931 34.3458C10.1552 34.4416 9.92981 34.3517 9.79046 34.1514C9.6526 33.9511 9.6526 33.7108 9.79344 33.6146C9.93316 33.5183 10.1552 33.6049 10.2964 33.8037C10.4339 34.0074 10.4339 34.2476 10.2931 34.3458ZM11.5772 35.8109C11.4539 35.9471 11.1912 35.9105 10.9989 35.7248C10.8022 35.5431 10.7474 35.2853 10.8711 35.1491C10.9959 35.0126 11.2601 35.051 11.4539 35.2353C11.6491 35.4166 11.7087 35.6763 11.5772 35.8109ZM13.2368 36.3055C13.1824 36.482 12.9294 36.5622 12.6745 36.4872C12.42 36.41 12.2535 36.2033 12.3049 36.025C12.3578 35.8474 12.6119 35.7639 12.8686 35.8441C13.1228 35.9209 13.2897 36.1261 13.2368 36.3055ZM15.1254 36.5154C15.1318 36.7011 14.9157 36.8552 14.6481 36.8586C14.3791 36.8645 14.1615 36.7142 14.1586 36.5314C14.1586 36.3438 14.3698 36.1912 14.6388 36.1867C14.9064 36.1815 15.1254 36.3307 15.1254 36.5154ZM16.9808 36.4441C17.0129 36.6255 16.827 36.8116 16.5613 36.8612C16.3001 36.909 16.0583 36.7971 16.0251 36.6172C15.9927 36.4315 16.182 36.2453 16.4428 36.1972C16.7089 36.1509 16.9469 36.2599 16.9808 36.4441Z" fill="#161614"/>
<path d="M29.8311 44.53C31.1092 44.53 30.9266 46.0952 30.9266 46.0952H14.3104C14.3104 46.0952 14.1278 44.53 15.406 44.53C16.5928 44.53 16.8667 43.9776 16.8667 43.4252L16.7754 39.374C10.2933 40.8472 8.92382 36.2436 8.92382 36.2436C7.82824 33.4815 6.36747 32.837 6.36747 32.837C4.17632 31.3639 6.45877 31.3639 6.45877 31.3639C8.83252 31.548 10.1107 33.7577 10.1107 33.7577C12.1192 37.3485 15.4973 36.3357 16.8667 35.7833C17.0493 34.2181 17.6884 33.2053 18.3275 32.5608C13.1235 32.0084 7.73694 29.9828 7.73694 20.9598C7.73694 18.3818 8.64992 16.2642 10.1107 14.6069C9.8368 14.0545 9.10641 11.6606 10.3846 8.43814C10.3846 8.43814 12.3018 7.79364 16.7754 10.832C20.61 9.72713 24.6271 9.72713 28.4616 10.832C32.9352 7.79364 34.8524 8.43814 34.8524 8.43814C36.1306 11.6606 35.4002 14.0545 35.1263 14.6069C36.5871 16.2642 37.5001 18.3818 37.5001 20.9598C37.5001 29.9828 32.0222 32.0084 26.8182 32.5608C27.7312 33.2973 28.4616 34.7705 28.4616 36.9802L28.3703 43.4252C28.3703 43.9776 28.6442 44.53 29.8311 44.53Z" fill="white"/>
</g>
<defs>
<filter id="filter0_b_7_135" x="-4" y="-4" width="53" height="52" filterUnits="userSpaceOnUse" color-interpolation-filters="sRGB">
<feFlood flood-opacity="0" result="BackgroundImageFix"/>
<feGaussianBlur in="BackgroundImageFix" stdDeviation="2"/>
<feComposite in2="SourceAlpha" operator="in" result="effect1_backgroundBlur_7_135"/>
<feBlend mode="normal" in="SourceGraphic" in2="effect1_backgroundBlur_7_135" result="shape"/>
</filter>
<clipPath id="clip0_7_135">
<rect width="45" height="44" fill="white"/>
</clipPath>
</defs>
</svg>
